<svg width="33" height="27" viewBox="0 0 33 27" fill="none" xmlns="http://www.w3.org/2000/svg">
<path d="M31.5421 7.65625H27.7652L26.7154 4.8125C25.6367 1.88877 23.0621 0 20.1558 0H12.1438C9.23809 0 6.66292 1.88877 5.58351 4.8125L4.53376 7.65625H0.757434C0.264732 7.65625 -0.096751 8.15801 0.0231124 8.67549L0.401628 10.3161C0.485533 10.6812 0.788346 10.9375 1.13595 10.9375H2.40209C1.55484 11.7394 1.00915 12.9049 1.00915 14.2188V17.5C1.00915 18.602 1.39776 19.5966 2.01852 20.3663V24.0625C2.01852 25.2704 2.92255 26.25 4.03728 26.25H6.05603C7.17076 26.25 8.07478 25.2704 8.07478 24.0625V21.875H24.2248V24.0625C24.2248 25.2704 25.1288 26.25 26.2436 26.25H28.2623C29.377 26.25 30.2811 25.2704 30.2811 24.0625V20.3663C30.9018 19.5973 31.2904 18.6026 31.2904 17.5V14.2188C31.2904 12.9049 30.7447 11.7394 29.8981 10.9375H31.1643C31.5119 10.9375 31.8147 10.6812 31.8986 10.3161L32.2771 8.67549C32.3963 8.15801 32.0349 7.65625 31.5421 7.65625ZM9.33208 6.4374C9.79198 5.19189 10.9055 4.375 12.1438 4.375H20.1558C21.3941 4.375 22.5076 5.19189 22.9675 6.4374L24.2248 9.84375H8.07478L9.33208 6.4374ZM6.05603 17.4863C4.84478 17.4863 4.03728 16.6141 4.03728 15.3057C4.03728 13.9973 4.84478 13.125 6.05603 13.125C7.26728 13.125 9.08416 15.0876 9.08416 16.396C9.08416 17.7044 7.26728 17.4863 6.05603 17.4863ZM26.2436 17.4863C25.0323 17.4863 23.2154 17.7044 23.2154 16.396C23.2154 15.0876 25.0323 13.125 26.2436 13.125C27.4548 13.125 28.2623 13.9973 28.2623 15.3057C28.2623 16.6141 27.4548 17.4863 26.2436 17.4863Z" fill="#EE3B24"/>
</svg>
