<svg width="19" height="28" viewBox="0 0 19 28" fill="none" xmlns="http://www.w3.org/2000/svg">
<path d="M10.5525 1.18353C10.1442 -0.358408 8.01028 -0.430201 7.54749 1.18353C5.14256 9.63577 0 11.9326 0 17.8898C0 23.1639 4.04782 27.4312 9.05 27.4312C14.0522 27.4312 18.1 23.1639 18.1 17.8898C18.1 11.9026 12.9688 9.67435 10.5525 1.18353ZM9.05 24.0023C5.87479 24.0023 3.29091 21.3101 3.29091 18.0018C3.29091 17.5281 3.65908 17.1445 4.11364 17.1445C4.56819 17.1445 4.93636 17.5281 4.93636 18.0018C4.93636 20.365 6.78184 22.2879 9.05 22.2879C9.50456 22.2879 9.87273 22.6715 9.87273 23.1451C9.87273 23.6187 9.50456 24.0023 9.05 24.0023Z" fill="#EE3B24"/>
</svg>
