<svg width="15" height="16" viewBox="0 0 15 16" fill="none" xmlns="http://www.w3.org/2000/svg">
<path d="M2.7389 0.162231C1.22167 0.162231 0 1.39381 0 2.92335V12.5228C0 14.0523 1.22167 15.2839 2.7389 15.2839H7.89982V9.37226H6.3492V7.24389H7.89982V5.42552C7.89982 3.9969 8.816 2.68519 10.9265 2.68519C11.781 2.68519 12.4129 2.76789 12.4129 2.76789L12.3632 4.75545C12.3632 4.75545 11.7188 4.74931 11.0156 4.74931C10.2545 4.74931 10.1325 5.10282 10.1325 5.68969V7.24391H12.4237L12.3239 9.37228H10.1325V15.2839H12.261C13.7783 15.2839 14.9999 14.0523 14.9999 12.5228V2.92337C14.9999 1.39383 13.7783 0.162247 12.261 0.162247H2.73888L2.7389 0.162231Z" fill="#666666"/>
</svg>
