<svg width="31" height="24" viewBox="0 0 31 24" fill="none" xmlns="http://www.w3.org/2000/svg">
<path d="M24.0863 8.9781L23.7006 9.65068C23.5595 9.89996 23.2585 10.0034 22.9904 9.90466C22.4354 9.69771 21.9274 9.4014 21.4806 9.02984C21.2643 8.85111 21.2078 8.53599 21.3489 8.29141L21.7346 7.61884C21.4101 7.24257 21.1561 6.80516 20.9868 6.33012H20.2107C19.9285 6.33012 19.6839 6.12788 19.6369 5.84567C19.5428 5.28127 19.5381 4.68865 19.6369 4.10073C19.6839 3.81853 19.9285 3.61159 20.2107 3.61159H20.9868C21.1561 3.13655 21.4101 2.69914 21.7346 2.32287L21.3489 1.65029C21.2078 1.40572 21.2596 1.09059 21.4806 0.911866C21.9274 0.540302 22.4401 0.243991 22.9904 0.0370443C23.2585 -0.0617259 23.5595 0.0417477 23.7006 0.291025L24.0863 0.963603C24.5801 0.87424 25.0834 0.87424 25.5772 0.963603L25.9629 0.291025C26.104 0.0417477 26.405 -0.0617259 26.6731 0.0370443C27.2281 0.243991 27.7361 0.540302 28.1829 0.911866C28.3993 1.09059 28.4557 1.40572 28.3146 1.65029L27.9289 2.32287C28.2534 2.69914 28.5074 3.13655 28.6768 3.61159H29.4528C29.735 3.61159 29.9796 3.81383 30.0266 4.09603C30.1207 4.66043 30.1254 5.25305 30.0266 5.84097C29.9796 6.12317 29.735 6.33012 29.4528 6.33012H28.6768C28.5074 6.80516 28.2534 7.24257 27.9289 7.61884L28.3146 8.29141C28.4557 8.53599 28.404 8.85111 28.1829 9.02984C27.7361 9.4014 27.2234 9.69771 26.6731 9.90466C26.405 10.0034 26.104 9.89996 25.9629 9.65068L25.5772 8.9781C25.0881 9.06746 24.5801 9.06746 24.0863 8.9781ZM23.5924 6.21253C25.4032 7.60472 27.468 5.53996 26.0758 3.72917C24.265 2.33228 22.2002 4.40175 23.5924 6.21253ZM18.1695 13.451L19.7545 14.2411C20.2295 14.5139 20.4365 15.0924 20.2484 15.6098C19.8298 16.748 19.0067 17.7922 18.2447 18.7046C17.8967 19.1232 17.2946 19.2267 16.8196 18.9539L15.4509 18.1637C14.6984 18.8081 13.8236 19.3208 12.8688 19.6547V21.235C12.8688 21.7806 12.4784 22.2509 11.9422 22.345C10.7852 22.5425 9.57175 22.552 8.3724 22.345C7.83151 22.2509 7.43173 21.7853 7.43173 21.235V19.6547C6.47695 19.3161 5.60213 18.8081 4.84959 18.1637L3.48092 18.9492C3.01058 19.222 2.40385 19.1185 2.0558 18.6999C1.29386 17.7875 0.48959 16.7433 0.0709918 15.6098C-0.117142 15.0972 0.0898052 14.5186 0.564843 14.2411L2.13106 13.451C1.94763 12.468 1.94763 11.4568 2.13106 10.4691L0.564843 9.6742C0.0898052 9.4014 -0.121845 8.82289 0.0709918 8.31023C0.48959 7.17202 1.29386 6.12788 2.0558 5.21543C2.40385 4.79683 3.00588 4.69336 3.48092 4.96615L4.84959 5.75631C5.60213 5.11195 6.47695 4.59929 7.43173 4.26535V2.68032C7.43173 2.13944 7.8174 1.6691 8.35359 1.57504C9.51061 1.3775 10.7288 1.36809 11.9281 1.57033C12.469 1.6644 12.8688 2.13003 12.8688 2.68032V4.26065C13.8236 4.59929 14.6984 5.10725 15.4509 5.75161L16.8196 4.96145C17.2899 4.68865 17.8967 4.79213 18.2447 5.21072C19.0067 6.12317 19.8062 7.16731 20.2248 8.30552C20.413 8.81819 20.2295 9.3967 19.7545 9.6742L18.1695 10.4644C18.3529 11.4521 18.3529 12.4633 18.1695 13.451ZM12.6383 14.4434C15.4227 10.8218 11.2885 6.68757 7.6669 9.47195C4.88252 13.0935 9.01676 17.2278 12.6383 14.4434ZM24.0863 23.0364L23.7006 23.709C23.5595 23.9583 23.2585 24.0617 22.9904 23.963C22.4354 23.756 21.9274 23.4597 21.4806 23.0881C21.2643 22.9094 21.2078 22.5943 21.3489 22.3497L21.7346 21.6771C21.4101 21.3009 21.1561 20.8635 20.9868 20.3884H20.2107C19.9285 20.3884 19.6839 20.1862 19.6369 19.904C19.5428 19.3396 19.5381 18.7469 19.6369 18.159C19.6839 17.8768 19.9285 17.6699 20.2107 17.6699H20.9868C21.1561 17.1948 21.4101 16.7574 21.7346 16.3812L21.3489 15.7086C21.2078 15.464 21.2596 15.1489 21.4806 14.9702C21.9274 14.5986 22.4401 14.3023 22.9904 14.0953C23.2585 13.9966 23.5595 14.1 23.7006 14.3493L24.0863 15.0219C24.5801 14.9325 25.0834 14.9325 25.5772 15.0219L25.9629 14.3493C26.104 14.1 26.405 13.9966 26.6731 14.0953C27.2281 14.3023 27.7361 14.5986 28.1829 14.9702C28.3993 15.1489 28.4557 15.464 28.3146 15.7086L27.9289 16.3812C28.2534 16.7574 28.5074 17.1948 28.6768 17.6699H29.4528C29.735 17.6699 29.9796 17.8721 30.0266 18.1543C30.1207 18.7187 30.1254 19.3113 30.0266 19.8993C29.9796 20.1815 29.735 20.3884 29.4528 20.3884H28.6768C28.5074 20.8635 28.2534 21.3009 27.9289 21.6771L28.3146 22.3497C28.4557 22.5943 28.404 22.9094 28.1829 23.0881C27.7361 23.4597 27.2234 23.756 26.6731 23.963C26.405 24.0617 26.104 23.9583 25.9629 23.709L25.5772 23.0364C25.0881 23.1258 24.5801 23.1258 24.0863 23.0364ZM23.5924 20.2661C25.4032 21.6583 27.468 19.5935 26.0758 17.7828C24.265 16.3906 22.2002 18.4553 23.5924 20.2661Z" fill="#EE3B24"/>
</svg>
