<svg width="15" height="16" viewBox="0 0 15 16" fill="none" xmlns="http://www.w3.org/2000/svg">
<path d="M7.49814 5.20172C6.12095 5.20172 4.99707 6.33472 4.99707 7.72307C4.99707 9.11142 6.12095 10.2444 7.49814 10.2444C8.87532 10.2444 9.99921 9.11142 9.99921 7.72307C9.99921 6.33472 8.87532 5.20172 7.49814 5.20172ZM14.9995 7.72307C14.9995 6.67897 15.0088 5.64432 14.9507 4.60211C14.8925 3.39156 14.6186 2.3172 13.7405 1.43198C12.8605 0.544874 11.7967 0.270609 10.5959 0.211973C9.56016 0.153337 8.53384 0.162794 7.50001 0.162794C6.46431 0.162794 5.43799 0.153337 4.40417 0.211973C3.20335 0.270609 2.13763 0.546766 1.25954 1.43198C0.379565 2.31909 0.107506 3.39156 0.0493411 4.60211C-0.0088233 5.64622 0.000558086 6.68086 0.000558086 7.72307C0.000558086 8.76528 -0.0088233 9.80181 0.0493411 10.844C0.107506 12.0546 0.381441 13.1289 1.25954 14.0142C2.13951 14.9013 3.20335 15.1755 4.40417 15.2342C5.43987 15.2928 6.46619 15.2833 7.50001 15.2833C8.53571 15.2833 9.56204 15.2928 10.5959 15.2342C11.7967 15.1755 12.8624 14.8994 13.7405 14.0142C14.6205 13.127 14.8925 12.0546 14.9507 10.844C15.0107 9.80181 14.9995 8.76717 14.9995 7.72307ZM7.49814 11.6025C5.36857 11.6025 3.64991 9.86991 3.64991 7.72307C3.64991 5.57623 5.36857 3.84363 7.49814 3.84363C9.6277 3.84363 11.3464 5.57623 11.3464 7.72307C11.3464 9.86991 9.6277 11.6025 7.49814 11.6025ZM11.504 4.59077C11.0068 4.59077 10.6052 4.18599 10.6052 3.68474C10.6052 3.1835 11.0068 2.77872 11.504 2.77872C12.0012 2.77872 12.4027 3.1835 12.4027 3.68474C12.4029 3.80377 12.3797 3.92165 12.3346 4.03164C12.2895 4.14163 12.2233 4.24157 12.1398 4.32573C12.0563 4.40989 11.9572 4.47662 11.8481 4.5221C11.739 4.56758 11.622 4.59091 11.504 4.59077Z" fill="#666666"/>
</svg>
