<svg width="25" height="28" viewBox="0 0 25 28" fill="none" xmlns="http://www.w3.org/2000/svg">
<path d="M1.44928 26.3548C1.44928 26.9408 1.88104 27.4142 2.41546 27.4142H11.0507V14.9653H1.44928V26.3548ZM13.1039 27.4142H21.7391C22.2735 27.4142 22.7053 26.9408 22.7053 26.3548V14.9653H13.1039V27.4142ZM23.1884 7.01911H18.7319C19.1425 6.31057 19.3841 5.4696 19.3841 4.56904C19.3841 2.04945 17.5151 0 15.2174 0C13.9674 0 12.8412 0.609205 12.0773 1.56937C11.3134 0.609205 10.1872 0 8.9372 0C6.63949 0 4.77053 2.04945 4.77053 4.56904C4.77053 5.4696 5.00906 6.31057 5.42271 7.01911H0.966183C0.431763 7.01911 0 7.49256 0 8.07859V12.7139H11.0507V7.01911H13.1039V12.7139H24.1546V8.07859C24.1546 7.49256 23.7228 7.01911 23.1884 7.01911ZM11.0507 6.88667H8.9372C7.77174 6.88667 6.82367 5.84705 6.82367 4.56904C6.82367 3.29103 7.77174 2.25141 8.9372 2.25141C10.1027 2.25141 11.0507 3.29103 11.0507 4.56904V6.88667ZM15.2174 6.88667H13.1039V4.56904C13.1039 3.29103 14.0519 2.25141 15.2174 2.25141C16.3828 2.25141 17.3309 3.29103 17.3309 4.56904C17.3309 5.84705 16.3828 6.88667 15.2174 6.88667Z" fill="#EE3B24"/>
</svg>
