<svg width="15" height="27" viewBox="0 0 15 27" fill="none" xmlns="http://www.w3.org/2000/svg">
<path d="M14.9341 17.6834C14.9341 13.024 11.1142 12.493 8.04508 12.0669C4.70012 11.6025 2.80734 11.1987 2.80734 8.32125C2.80734 5.90625 5.34082 5.04808 7.5105 5.04808C8.59174 5.01318 9.66581 5.23556 10.6441 5.69687C11.6224 6.15819 12.477 6.84523 13.1373 7.70135L14.7097 6.43327C14.0026 5.52479 13.1227 4.7649 12.1207 4.19728C11.1186 3.62966 10.0141 3.26552 8.87071 3.12577V0H6.84959V3.05106C3.19641 3.27317 0.786217 5.33279 0.786217 8.32125C0.786217 13.0967 4.65667 13.6349 7.76617 14.066C11.0535 14.5233 12.913 14.9161 12.913 17.6834C12.913 20.7446 9.74687 21.2019 7.86015 21.2019C4.39392 21.2019 2.93063 20.2287 1.57243 18.5487L0 19.8167C0.801134 20.8715 1.83731 21.7251 3.0263 22.3099C4.21528 22.8948 5.52435 23.1946 6.84959 23.1858V26.25H8.87071V23.1757C12.6361 22.8688 14.9341 20.8263 14.9341 17.6834Z" fill="#EE3B24"/>
</svg>
