<svg width="33" height="27" viewBox="0 0 33 27" fill="none" xmlns="http://www.w3.org/2000/svg">
<path d="M26.2556 9.78671L25.8352 10.5199C25.6814 10.7916 25.3533 10.9044 25.061 10.7967C24.456 10.5711 23.9023 10.2481 23.4153 9.84311C23.1794 9.64829 23.1179 9.30478 23.2717 9.03818L23.6921 8.30503C23.3384 7.89487 23.0615 7.41806 22.8769 6.90024H22.031C21.7234 6.90024 21.4568 6.67978 21.4055 6.37216C21.303 5.75693 21.2978 5.11094 21.4055 4.47007C21.4568 4.16245 21.7234 3.93686 22.031 3.93686H22.8769C23.0615 3.41904 23.3384 2.94223 23.6921 2.53208L23.2717 1.79892C23.1179 1.53232 23.1743 1.18882 23.4153 0.993994C23.9023 0.588964 24.4612 0.265967 25.061 0.0403807C25.3533 -0.0672852 25.6814 0.0455077 25.8352 0.317236L26.2556 1.05039C26.7939 0.952978 27.3425 0.952978 27.8809 1.05039L28.3013 0.317236C28.4551 0.0455077 28.7832 -0.0672852 29.0754 0.0403807C29.6804 0.265967 30.2341 0.588964 30.7212 0.993994C30.957 1.18882 31.0186 1.53232 30.8647 1.79892L30.4443 2.53208C30.7981 2.94223 31.0749 3.41904 31.2595 3.93686H32.1055C32.4131 3.93686 32.6797 4.15732 32.731 4.46494C32.8335 5.08017 32.8386 5.72617 32.731 6.36704C32.6797 6.67465 32.4131 6.90024 32.1055 6.90024H31.2595C31.0749 7.41806 30.7981 7.89487 30.4443 8.30503L30.8647 9.03818C31.0186 9.30478 30.9622 9.64829 30.7212 9.84311C30.2341 10.2481 29.6753 10.5711 29.0754 10.7967C28.7832 10.9044 28.4551 10.7916 28.3013 10.5199L27.8809 9.78671C27.3477 9.88413 26.7939 9.88413 26.2556 9.78671ZM25.7173 6.77207C27.6912 8.28964 29.9419 6.03891 28.4243 4.06504C26.4504 2.54233 24.1997 4.79819 25.7173 6.77207ZM19.8059 14.6624L21.5337 15.5238C22.0515 15.8211 22.2771 16.4517 22.072 17.0157C21.6157 18.2564 20.7185 19.3946 19.8879 20.3892C19.5085 20.8455 18.8523 20.9583 18.3345 20.661L16.8425 19.7996C16.0222 20.502 15.0686 21.0609 14.0278 21.4249V23.1475C14.0278 23.7423 13.6023 24.255 13.0178 24.3575C11.7566 24.5728 10.4338 24.5831 9.12646 24.3575C8.53686 24.255 8.10107 23.7474 8.10107 23.1475V21.4249C7.0603 21.0557 6.10668 20.502 5.28637 19.7996L3.79443 20.6558C3.28173 20.9532 2.62035 20.8404 2.24096 20.3841C1.41039 19.3895 0.533685 18.2513 0.0773857 17.0157C-0.127692 16.4569 0.0978935 15.8263 0.615716 15.5238L2.32299 14.6624C2.12304 13.5909 2.12304 12.4886 2.32299 11.412L0.615716 10.5455C0.0978935 10.2481 -0.132819 9.61752 0.0773857 9.05869C0.533685 7.81797 1.41039 6.67978 2.24096 5.68515C2.62035 5.22885 3.2766 5.11606 3.79443 5.41342L5.28637 6.27475C6.10668 5.57236 7.0603 5.01352 8.10107 4.64951V2.92173C8.10107 2.33213 8.52148 1.81943 9.10595 1.71689C10.3672 1.50156 11.6951 1.49131 13.0024 1.71177C13.592 1.81431 14.0278 2.32187 14.0278 2.92173V4.64438C15.0686 5.01352 16.0222 5.56723 16.8425 6.26963L18.3345 5.4083C18.8472 5.11093 19.5085 5.22373 19.8879 5.68003C20.7185 6.67465 21.5901 7.81284 22.0464 9.05356C22.2515 9.6124 22.0515 10.243 21.5337 10.5455L19.8059 11.4068C20.0059 12.4835 20.0059 13.5858 19.8059 14.6624ZM13.7766 15.7442C16.8118 11.7965 12.3052 7.28989 8.35742 10.325C5.32226 14.2728 9.82885 18.7794 13.7766 15.7442ZM26.2556 25.1112L25.8352 25.8443C25.6814 26.1161 25.3533 26.2288 25.061 26.1212C24.456 25.8956 23.9023 25.5726 23.4153 25.1676C23.1794 24.9727 23.1179 24.6292 23.2717 24.3626L23.6921 23.6295C23.3384 23.2193 23.0615 22.7425 22.8769 22.2247H22.031C21.7234 22.2247 21.4568 22.0042 21.4055 21.6966C21.303 21.0814 21.2978 20.4354 21.4055 19.7945C21.4568 19.4869 21.7234 19.2613 22.031 19.2613H22.8769C23.0615 18.7435 23.3384 18.2667 23.6921 17.8565L23.2717 17.1234C23.1179 16.8568 23.1743 16.5133 23.4153 16.3184C23.9023 15.9134 24.4612 15.5904 25.061 15.3648C25.3533 15.2572 25.6814 15.37 25.8352 15.6417L26.2556 16.3748C26.7939 16.2774 27.3425 16.2774 27.8809 16.3748L28.3013 15.6417C28.4551 15.37 28.7832 15.2572 29.0754 15.3648C29.6804 15.5904 30.2341 15.9134 30.7212 16.3184C30.957 16.5133 31.0186 16.8568 30.8647 17.1234L30.4443 17.8565C30.7981 18.2667 31.0749 18.7435 31.2595 19.2613H32.1055C32.4131 19.2613 32.6797 19.4818 32.731 19.7894C32.8335 20.4046 32.8386 21.0506 32.731 21.6915C32.6797 21.9991 32.4131 22.2247 32.1055 22.2247H31.2595C31.0749 22.7425 30.7981 23.2193 30.4443 23.6295L30.8647 24.3626C31.0186 24.6292 30.9622 24.9727 30.7212 25.1676C30.2341 25.5726 29.6753 25.8956 29.0754 26.1212C28.7832 26.2288 28.4551 26.1161 28.3013 25.8443L27.8809 25.1112C27.3477 25.2086 26.7939 25.2086 26.2556 25.1112ZM25.7173 22.0914C27.6912 23.609 29.9419 21.3582 28.4243 19.3844C26.4504 17.8668 24.1997 20.1175 25.7173 22.0914Z" fill="#EE3B24"/>
</svg>
