<svg width="21" height="22" viewBox="0 0 21 22" fill="none" xmlns="http://www.w3.org/2000/svg">
<path d="M20.6005 1.37812L20.4693 0L19.1568 0.4375C16.9074 1.21903 14.5054 1.45886 12.1459 1.1375C9.66648 0.752731 7.12873 1.09464 4.8396 2.12188C3.62606 2.63861 2.56105 3.45069 1.74153 4.48417C0.922002 5.51764 0.374 6.7397 0.147412 8.03906C-0.146392 9.71763 0.000589609 11.4437 0.573975 13.0484C0.943175 12.2151 1.3746 11.4107 1.8646 10.6422C2.97607 9.00686 4.51615 7.70894 6.31616 6.89062C8.05024 6.09889 9.94565 5.7243 11.8505 5.79687C10.0371 6.07414 8.30132 6.726 6.75366 7.71094C6.00715 8.17999 5.32351 8.74234 4.71929 9.38437C4.14142 10.0261 3.6319 10.7262 3.19898 11.4734C2.3858 13.0353 1.80719 14.7085 1.48179 16.4391C1.13104 18.1752 0.940651 19.9399 0.913037 21.7109H3.10054C3.20335 20.1226 3.419 18.5436 3.74585 16.9859C5.26335 17.8054 6.96514 18.2233 8.6896 18.2C10.2979 18.1989 11.8897 17.8753 13.3708 17.2484C21.6943 13.6938 20.6005 1.87031 20.6005 1.37812Z" fill="#EE3B24"/>
</svg>
