<svg width="23" height="27" viewBox="0 0 23 27" fill="none" xmlns="http://www.w3.org/2000/svg">
<path fill-rule="evenodd" clip-rule="evenodd" d="M11.4844 24.4995C11.5401 24.4904 11.595 24.4767 11.6484 24.4584C11.7731 24.4207 11.9339 24.3584 12.1308 24.2648C12.5245 24.0795 13.0282 23.7891 13.5959 23.3904C15.0225 22.3635 16.2873 21.1286 17.348 19.7269C19.8532 16.4505 21.9532 11.4729 21.0443 4.65281C21.0237 4.5064 20.9623 4.36874 20.8672 4.25558C20.772 4.14243 20.6469 4.05835 20.5062 4.01297C19.4381 3.66352 17.6351 3.09422 15.8517 2.61023C14.0306 2.11641 12.3556 1.75055 11.4844 1.75055V24.4995ZM6.68063 0.91875C8.46071 0.434766 10.3524 0 11.4844 0C12.6164 0 14.5081 0.434766 16.2881 0.91875C18.1092 1.41094 19.9451 1.99336 21.0246 2.34609C21.476 2.49515 21.8761 2.7685 22.1791 3.13474C22.4821 3.50099 22.6756 3.94528 22.7374 4.41656C23.7152 11.7616 21.4463 17.2052 18.6933 20.8064C17.5259 22.3469 16.1339 23.7035 14.5638 24.8309C14.0209 25.221 13.4457 25.564 12.8445 25.8563C12.3851 26.0728 11.8913 26.25 11.4844 26.25C11.0775 26.25 10.5853 26.0728 10.1243 25.8563C9.52304 25.564 8.94783 25.221 8.40493 24.8309C6.8349 23.7035 5.44292 22.3469 4.27548 20.8064C1.52251 17.2052 -0.746476 11.7616 0.231337 4.41656C0.293168 3.94528 0.486689 3.50099 0.789669 3.13474C1.09265 2.7685 1.4928 2.49515 1.94415 2.34609C3.51126 1.83227 5.09055 1.35635 6.68063 0.91875Z" fill="#EE3B24"/>
</svg>
