<svg width="36" height="36" viewBox="0 0 36 36" fill="none" xmlns="http://www.w3.org/2000/svg">
<path d="M33.2537 16.3477C33.6254 16.0708 33.9011 15.6845 34.0422 15.2431C34.1832 14.8016 34.1826 14.327 34.0403 13.886C33.8981 13.4449 33.6214 13.0594 33.249 12.7835C32.8765 12.5076 32.4271 12.3552 31.9638 12.3477L22.9637 12.0077C22.9195 12.0046 22.8771 11.9888 22.8416 11.9622C22.8061 11.9356 22.7791 11.8993 22.7638 11.8577L19.6537 3.45765C19.4975 3.03029 19.2137 2.66127 18.8408 2.40055C18.4678 2.13983 18.0238 2 17.5688 2C17.1137 2 16.6697 2.13983 16.2967 2.40055C15.9238 2.66127 15.64 3.03029 15.4837 3.45765L12.3837 11.8877C12.3684 11.9293 12.3414 11.9656 12.3059 11.9922C12.2704 12.0188 12.228 12.0346 12.1837 12.0377L3.18375 12.3777C2.72035 12.3852 2.27095 12.5376 1.89854 12.8135C1.52614 13.0894 1.24941 13.4749 1.10716 13.916C0.964907 14.357 0.964269 14.8316 1.10533 15.2731C1.2464 15.7145 1.52209 16.1008 1.89375 16.3777L8.95375 21.9277C8.98908 21.9555 9.01549 21.993 9.02971 22.0357C9.04393 22.0783 9.04533 22.1242 9.03375 22.1677L6.60375 30.7776C6.47783 31.2161 6.49003 31.6827 6.63869 32.1139C6.78735 32.5452 7.06525 32.9202 7.4346 33.1879C7.80394 33.4556 8.24679 33.6031 8.7029 33.6102C9.15901 33.6173 9.60624 33.4837 9.98375 33.2276L17.4438 28.2276C17.4805 28.2023 17.5241 28.1887 17.5688 28.1887C17.6134 28.1887 17.657 28.2023 17.6938 28.2276L25.1538 33.2276C25.5262 33.4925 25.9718 33.6348 26.4288 33.6348C26.8857 33.6348 27.3314 33.4925 27.7038 33.2276C28.0732 32.9625 28.3514 32.5893 28.5 32.1595C28.6486 31.7297 28.6604 31.2644 28.5338 30.8277L26.0838 22.1877C26.0708 22.1443 26.0715 22.098 26.0858 22.055C26.1001 22.012 26.1273 21.9746 26.1638 21.9476L33.2537 16.3477Z" fill="#7D7D7D"/>
</svg>
