<svg width="15" height="13" viewBox="0 0 15 13" fill="none" xmlns="http://www.w3.org/2000/svg">
<path d="M15 1.62858C14.4484 1.87499 13.8558 2.04149 13.2328 2.11674C13.8756 1.729 14.3565 1.11875 14.5858 0.399852C13.9819 0.76147 13.3209 1.01601 12.6317 1.15241C12.1682 0.653499 11.5543 0.322815 10.8852 0.211696C10.2162 0.100576 9.52948 0.215237 8.93172 0.537877C8.33395 0.860517 7.85857 1.37309 7.57938 1.996C7.30018 2.61892 7.2328 3.31733 7.38769 3.98281C6.16402 3.92087 4.96694 3.60024 3.87415 3.04172C2.78135 2.4832 1.81726 1.69928 1.04444 0.740832C0.78019 1.20036 0.628248 1.73314 0.628248 2.30055C0.627953 2.81135 0.75273 3.31433 0.991508 3.76486C1.23029 4.21538 1.57568 4.59953 1.99705 4.88321C1.50837 4.86753 1.03048 4.73442 0.603145 4.49495V4.5349C0.603095 5.25132 0.848916 5.94569 1.2989 6.5002C1.74888 7.0547 2.3753 7.43519 3.07188 7.57709C2.61855 7.70077 2.14327 7.71899 1.68193 7.63037C1.87847 8.2468 2.26129 8.78585 2.77682 9.17205C3.29235 9.55825 3.91477 9.77227 4.55695 9.78414C3.46682 10.6469 2.12051 11.1148 0.734608 11.1128C0.489109 11.1128 0.243819 11.0984 0 11.0695C1.40677 11.9813 3.04435 12.4652 4.71681 12.4634C10.3783 12.4634 13.4733 7.73626 13.4733 3.6365C13.4733 3.5033 13.47 3.36878 13.4641 3.23558C14.0661 2.79669 14.5857 2.2532 14.9987 1.63058L15 1.62858V1.62858Z" fill="#666666"/>
</svg>
